<svg width="24" height="14" viewBox="0 0 24 14" fill="none" xmlns="http://www.w3.org/2000/svg">
<path d="M23.9438 7.0125C21.1125 3.75 17.2 0 12 0C9.9 0 7.975 0.59375 5.94375 1.8625C4.23125 2.9375 2.475 4.45 0.0625 6.9375L0 7L0.41875 7.43125C3.8625 10.9562 6.8375 14 12 14C14.2812 14 16.4938 13.2563 18.7625 11.725C20.6938 10.4188 22.3375 8.7625 23.6562 7.425L24 7.08125L23.9438 7.0125ZM12 1C14.0688 1 16.0563 1.59375 18.075 2.9125C19.5688 3.8875 21.0375 5.20625 22.6812 7.04375C20.2875 9.4625 16.6938 13 12 13C9.8625 13 7.9875 12.475 6.1125 11.2375C4.39375 10.1062 2.84375 8.53125 1.35 7C5.04375 3.26875 8.125 1 12 1Z" fill="white"/>
<path d="M12 12C14.7562 12 17 9.75625 17 7C17 4.24375 14.7562 2 12 2C9.24375 2 7 4.24375 7 7C7 9.75625 9.24375 12 12 12ZM12 3.01875C14.2 3.01875 16 4.80625 16 7C16 9.19375 14.2 10.9813 12 10.9813C9.8 10.9813 8.00625 9.19375 8.00625 7C8.00625 4.80625 9.8 3.01875 12 3.01875Z" fill="white"/>
<path d="M13.9996 7C13.9996 8.09375 13.0996 9 12.0121 9C10.9246 9 9.99961 8.05 9.99961 6.95625C9.99961 5.8625 10.9871 5 11.9996 5V4C10.3434 4 9.00586 5.35 9.00586 7.0125C9.00586 8.675 10.3496 10.0187 11.9996 10.0187C13.6496 10.0187 14.9996 8.66875 14.9996 7.0125V7H13.9996Z" fill="white"/>
</svg>
