<svg width="24" height="24" viewBox="0 0 24 24" fill="none" xmlns="http://www.w3.org/2000/svg">
<path d="M11.5 24H3.5C2.1215 24 1 22.8785 1 21.5V2.5C1 2.2235 1.224 2 1.5 2C1.776 2 2 2.2235 2 2.5V21.5C2 22.327 2.673 23 3.5 23H11.5C11.776 23 12 23.2235 12 23.5C12 23.7765 11.776 24 11.5 24Z" fill="#434040"/>
<path d="M20.5 11.4995C20.224 11.4995 20 11.276 20 10.9995V5H3.5C2.1215 5 1 3.8785 1 2.5C1 1.1215 2.1215 0 3.5 0H20.5C20.776 0 21 0.2235 21 0.5C21 0.7765 20.776 1 20.5 1H3.5C2.673 1 2 1.673 2 2.5C2 3.327 2.673 4 3.5 4H21V10.9995C21 11.276 20.776 11.4995 20.5 11.4995Z" fill="#434040"/>
<path d="M17 24C13.6915 24 11 21.3085 11 18C11 14.6915 13.6915 12 17 12C20.3085 12 23 14.6915 23 18C23 21.3085 20.3085 24 17 24ZM17 13C14.243 13 12 15.243 12 18C12 20.757 14.243 23 17 23C19.757 23 22 20.757 22 18C22 15.243 19.757 13 17 13Z" fill="#434040"/>
<path d="M17 21C16.724 21 16.5 20.7765 16.5 20.5V15.5C16.5 15.2235 16.724 15 17 15C17.276 15 17.5 15.2235 17.5 15.5V20.5C17.5 20.7765 17.276 21 17 21Z" fill="#434040"/>
<path d="M17.0001 21.2071L14.6466 18.8536C14.4511 18.6581 14.4511 18.3421 14.6466 18.1466C14.8421 17.9511 15.1581 17.9511 15.3536 18.1466L17.0001 19.7931L18.6466 18.1466C18.8421 17.9511 19.1581 17.9511 19.3536 18.1466C19.5491 18.3421 19.5491 18.6581 19.3536 18.8536L17.0001 21.2071Z" fill="#434040"/>
<path d="M20 2H3.5V3H20V2Z" fill="#434040"/>
</svg>
