<svg width="32" height="32" viewBox="0 0 32 32" fill="none" xmlns="http://www.w3.org/2000/svg">
<g clip-path="url(#clip0_1162_268)">
<path d="M16.0006 30C12.2606 30 8.7456 28.544 6.1016 25.899C1.7796 21.578 0.753603 15.025 3.5476 9.595C3.8006 9.104 4.4026 8.911 4.8946 9.163C5.3856 9.415 5.5796 10.018 5.3266 10.51C2.9316 15.165 3.8106 20.781 7.5156 24.485C9.7816 26.752 12.7946 28 16.0006 28C19.2056 28 22.2196 26.752 24.4856 24.485C26.7516 22.218 28.0006 19.205 28.0006 16C28.0006 12.794 26.7526 9.781 24.4856 7.515C22.2186 5.249 19.2066 4 16.0006 4C12.7946 4 9.7816 5.249 7.5156 7.515C7.1246 7.906 6.4926 7.906 6.1016 7.515C5.7106 7.124 5.7106 6.492 6.1016 6.101C8.7456 3.457 12.2606 2 16.0006 2C19.7406 2 23.2566 3.457 25.8996 6.101C28.5446 8.745 30.0006 12.26 30.0006 16C30.0006 19.739 28.5446 23.255 25.8996 25.899C23.2566 28.544 19.7406 30 16.0006 30Z" fill="white"/>
<path d="M16 22C15.448 22 15 21.553 15 21V11C15 10.448 15.448 10 16 10C16.552 10 17 10.448 17 11V21C17 21.553 16.552 22 16 22Z" fill="white"/>
<path d="M21 17H11C10.448 17 10 16.552 10 16C10 15.448 10.448 15 11 15H21C21.553 15 22 15.448 22 16C22 16.552 21.553 17 21 17Z" fill="white"/>
</g>
<defs>
<clipPath id="clip0_1162_268">
<rect width="32" height="32" fill="white"/>
</clipPath>
</defs>
</svg>
