<svg width="24" height="24" viewBox="0 0 24 24" fill="none" xmlns="http://www.w3.org/2000/svg">
<path d="M12 9.81818C5.271 9.81818 0 7.662 0 4.90909C0 2.15618 5.271 0 12 0C18.729 0 24 2.15618 24 4.90909C24 7.662 18.729 9.81818 12 9.81818ZM12 1.09091C6.8916 1.09091 1.2 2.65909 1.2 4.90909C1.2 7.15909 6.8916 8.72727 12 8.72727C17.1084 8.72727 22.8 7.15909 22.8 4.90909C22.8 2.65909 17.1084 1.09091 12 1.09091Z" fill="black"/>
<path d="M12 14.1815C5.271 14.1815 0 12.0253 0 9.27237V4.90874C0 4.6071 0.2682 4.36328 0.6 4.36328C0.9318 4.36328 1.2 4.6071 1.2 4.90874V9.27237C1.2 11.5224 6.8916 13.0906 12 13.0906C17.1084 13.0906 22.8 11.5224 22.8 9.27237V4.90874C22.8 4.6071 23.0682 4.36328 23.4 4.36328C23.7318 4.36328 24 4.6071 24 4.90874V9.27237C24 12.0253 18.729 14.1815 12 14.1815Z" fill="black"/>
<path d="M12 19.0922C5.271 19.0922 0 16.936 0 14.1831V9.27397C0 8.97233 0.2682 8.72852 0.6 8.72852C0.9318 8.72852 1.2 8.97233 1.2 9.27397V14.1831C1.2 16.4331 6.8916 18.0012 12 18.0012C17.1084 18.0012 22.8 16.4331 22.8 14.1831V9.27397C22.8 8.97233 23.0682 8.72852 23.4 8.72852C23.7318 8.72852 24 8.97233 24 9.27397V14.1831C24 16.936 18.729 19.0922 12 19.0922Z" fill="black"/>
<path d="M12 24.0004C5.271 24.0004 0 21.8442 0 19.0913V14.1822C0 13.8805 0.2682 13.6367 0.6 13.6367C0.9318 13.6367 1.2 13.8805 1.2 14.1822V19.0913C1.2 21.3413 6.8916 22.9094 12 22.9094C17.1084 22.9094 22.8 21.3413 22.8 19.0913V14.1822C22.8 13.8805 23.0682 13.6367 23.4 13.6367C23.7318 13.6367 24 13.8805 24 14.1822V19.0913C24 21.8442 18.729 24.0004 12 24.0004Z" fill="black"/>
</svg>
