<svg width="24" height="24" viewBox="0 0 24 24" fill="none" xmlns="http://www.w3.org/2000/svg">
<path d="M12 23.9999C11.9198 23.9999 11.8396 23.9832 11.7655 23.9493L0.310909 18.7373C0.121091 18.6507 0 18.4678 0 18.2666V2.10934C0 1.93057 0.096 1.76431 0.254182 1.6684C0.411818 1.57302 0.610909 1.56208 0.78 1.6387L12 6.74388L23.22 1.63818C23.3891 1.56208 23.5871 1.5725 23.7453 1.6684C23.904 1.76431 24 1.93057 24 2.10934V18.2666C24 18.4678 23.8789 18.6507 23.6891 18.7373L12.2345 23.9493C12.1604 23.9832 12.0802 23.9999 12 23.9999ZM1.09091 17.9372L12 22.9012L22.9091 17.9372V2.93493L12.2345 7.79201C12.0867 7.85925 11.9138 7.85925 11.766 7.79201L1.09091 2.93493V17.9372Z" fill="black"/>
<path d="M11.9957 5.31821L2.48681 0.99171C2.21463 0.867663 2.09954 0.556505 2.22881 0.296946C2.35863 0.0368663 2.68372 -0.072065 2.9559 0.0498964L11.9957 4.16375L21.0355 0.0498964C21.3083 -0.072065 21.6328 0.0368663 21.7626 0.296946C21.8919 0.556505 21.7768 0.867663 21.5046 0.99171L11.9957 5.31821Z" fill="black"/>
<path d="M12.5479 7.32227H11.457V23.4795H12.5479V7.32227Z" fill="black"/>
</svg>
