<svg width="24" height="24" viewBox="0 0 24 24" fill="none" xmlns="http://www.w3.org/2000/svg">
<path d="M12.0469 21.1017C11.9267 21.1017 11.8086 21.0709 11.7038 21.0122C9.64688 19.865 7.93375 18.1893 6.74146 16.1582C5.54917 14.1272 4.92099 11.8145 4.92188 9.45938C4.92188 9.36313 4.92281 9.26719 4.92469 9.17156C4.97156 7.03969 5.76516 5.24438 7.22156 3.98016C8.50969 2.86453 10.223 2.25 12.0469 2.25C13.8708 2.25 15.5836 2.86453 16.8703 3.98016C18.3281 5.24578 19.1231 7.03969 19.1672 9.17156C19.1672 9.26531 19.1705 9.36328 19.1705 9.45938C19.1717 11.851 18.5237 14.198 17.2955 16.2502C16.1033 18.2379 14.4122 19.8795 12.39 21.0122C12.2852 21.0709 12.167 21.1017 12.0469 21.1017ZM12.0469 3.65625C10.5614 3.65625 9.17531 4.14844 8.14453 5.04281C6.99469 6.03938 6.3675 7.4775 6.33094 9.20156C6.33094 9.28688 6.32813 9.37313 6.32813 9.45938C6.32743 11.4969 6.85365 13.5 7.85569 15.2741C8.85773 17.0482 10.3015 18.533 12.0469 19.5844C13.7057 18.5815 15.0941 17.1882 16.0913 15.5259C17.1881 13.6925 17.7668 11.5958 17.7656 9.45938C17.7656 9.37313 17.7656 9.28688 17.7628 9.20156C17.7258 7.4775 17.0986 6.03938 15.9492 5.04281C14.918 4.14844 13.5323 3.65625 12.0469 3.65625Z" fill="black"/>
<path d="M12.0651 13.903C11.1906 13.903 10.3358 13.6437 9.60874 13.1579C8.88166 12.6721 8.31498 11.9816 7.98035 11.1737C7.64571 10.3659 7.55816 9.47689 7.72875 8.61926C7.89935 7.76162 8.32043 6.97383 8.93876 6.3555C9.55708 5.73718 10.3449 5.3161 11.2025 5.1455C12.0601 4.97491 12.9491 5.06246 13.757 5.3971C14.5649 5.73173 15.2554 6.29841 15.7412 7.02548C16.227 7.75255 16.4863 8.60736 16.4863 9.4818C16.4851 10.654 16.0189 11.7778 15.19 12.6067C14.3611 13.4356 13.2373 13.9018 12.0651 13.903ZM12.0651 6.46727C11.4687 6.46727 10.8858 6.64411 10.39 6.97542C9.89413 7.30673 9.50769 7.77764 9.27951 8.32859C9.05132 8.87953 8.99164 9.48577 9.10802 10.0706C9.22439 10.6555 9.51159 11.1927 9.93329 11.6144C10.355 12.036 10.8923 12.3231 11.4771 12.4394C12.062 12.5557 12.6683 12.4959 13.2192 12.2676C13.7701 12.0394 14.2409 11.6528 14.5722 11.157C14.9034 10.6611 15.0801 10.0781 15.0801 9.4818C15.0787 8.68276 14.7605 7.91687 14.1954 7.35204C13.6302 6.78721 12.8641 6.46954 12.0651 6.46867V6.46727Z" fill="black"/>
</svg>
