<svg width="24" height="24" viewBox="0 0 24 24" fill="none" xmlns="http://www.w3.org/2000/svg">
<path d="M15.5 9H8.5V4H15.5V9ZM9.5 8H14.5V5H9.5V8Z" fill="black"/>
<path d="M20.5 24H2.5V0H20.5V24ZM3.5 23H19.5V1H3.5V23Z" fill="black"/>
<path d="M22.5 6.5H20V7.5H22.5V6.5Z" fill="black"/>
<path d="M22.5 10.5H20V11.5H22.5V10.5Z" fill="black"/>
<path d="M22.5 14.5H20V15.5H22.5V14.5Z" fill="black"/>
<path d="M21 19.5H20V18.5H21C21.5515 18.5 22 18.0515 22 17.5V4.5C22 3.9485 21.5515 3.5 21 3.5H20V2.5H21C22.103 2.5 23 3.397 23 4.5V17.5C23 18.603 22.103 19.5 21 19.5Z" fill="black"/>
<path d="M4.5 4H1.5V5H4.5V4Z" fill="black"/>
<path d="M4.5 7H1.5V8H4.5V7Z" fill="black"/>
<path d="M4.5 10H1.5V11H4.5V10Z" fill="black"/>
<path d="M4.5 13H1.5V14H4.5V13Z" fill="black"/>
<path d="M4.5 16H1.5V17H4.5V16Z" fill="black"/>
<path d="M4.5 19H1.5V20H4.5V19Z" fill="black"/>
</svg>
