<svg width="24" height="24" viewBox="0 0 24 24" fill="none" xmlns="http://www.w3.org/2000/svg">
<path d="M11.7891 9C12.3068 9 12.7266 8.58027 12.7266 8.0625C12.7266 7.54473 12.3068 7.125 11.7891 7.125C11.2713 7.125 10.8516 7.54473 10.8516 8.0625C10.8516 8.58027 11.2713 9 11.7891 9Z" fill="white"/>
<path d="M12.75 16.125V10.125H10.5V10.5H11.25V16.125H10.5V16.5H13.5V16.125H12.75Z" fill="white"/>
<path d="M12 2.25C6.61406 2.25 2.25 6.61406 2.25 12C2.25 17.3859 6.61406 21.75 12 21.75C17.3859 21.75 21.75 17.3859 21.75 12C21.75 6.61406 17.3859 2.25 12 2.25ZM12 20.9391C7.07344 20.9391 3.06094 16.9312 3.06094 12C3.06094 7.07344 7.06875 3.06094 12 3.06094C16.9266 3.06094 20.9391 7.06875 20.9391 12C20.9391 16.9266 16.9266 20.9391 12 20.9391Z" fill="white"/>
</svg>
