<svg width="24" height="24" viewBox="0 0 24 24" fill="none" xmlns="http://www.w3.org/2000/svg">
<g clip-path="url(#clip0_1882_1043)">
<path d="M19.5619 12.0977L21.0929 14.7507C22.0599 16.4247 21.4859 18.5657 19.8129 19.5317C19.2799 19.8387 18.6769 20.0007 18.0629 20.0007H15.9999V22.5007L10.9999 19.0007L15.9999 15.5007V18.0007H18.0619C18.3249 18.0007 18.5839 17.9307 18.8119 17.7997C19.5299 17.3857 19.7749 16.4677 19.3619 15.7507L17.8299 13.0977L19.5619 12.0977ZM7.30395 9.13474L7.83395 15.2147L5.66995 13.9647L4.63895 15.7507C4.50695 15.9787 4.43795 16.2377 4.43795 16.5007C4.43795 17.3287 5.10895 18.0007 5.93795 18.0007H8.99995V20.0007H5.93795C4.00495 20.0007 2.43795 18.4337 2.43795 16.5007C2.43795 15.8867 2.59995 15.2827 2.90695 14.7507L3.93695 12.9637L1.77295 11.7147L7.30295 9.13474H7.30395ZM13.7499 2.96974C14.2819 3.27674 14.7239 3.71874 15.0309 4.25074L16.061 6.03574L18.2269 4.78574L17.6969 10.8667L12.1649 8.28674L14.3299 7.03674L13.2989 5.25074C13.1669 5.02274 12.9779 4.83374 12.7499 4.70174C12.0329 4.28774 11.1149 4.53374 10.7009 5.25074L9.16895 7.90374L7.43695 6.90374L8.96995 4.25074C9.93595 2.57674 12.077 2.00274 13.7509 2.96974H13.7499Z" fill="black"/>
</g>
<defs>
<clipPath id="clip0_1882_1043">
<rect width="24" height="24" fill="white"/>
</clipPath>
</defs>
</svg>
