<svg width="30" height="30" viewBox="0 0 30 30" fill="none" xmlns="http://www.w3.org/2000/svg">
<g clip-path="url(#clip0_1505_2679)">
<path d="M21.0002 25.636H14.0001V18.7613H10.0001V25.636H3V14.5308C3 14.2389 3.2235 14.002 3.50001 14.002C3.77651 14.002 4.00001 14.2389 4.00001 14.5308V24.5784H9.00006V17.7037H15.0001V24.5784H20.0002V15.0596C20.0002 14.7677 20.2237 14.5308 20.5002 14.5308C20.7767 14.5308 21.0002 14.7677 21.0002 15.0596V25.636Z" fill="black"/>
<path d="M23.5004 14.5295C23.3759 14.5295 23.2519 14.4809 23.1549 14.383L12.0002 3.09854L0.845636 14.383C0.646134 14.5845 0.329631 14.5777 0.138629 14.3667C-0.0523734 14.1557 -0.0448733 13.8209 0.154129 13.6189L12.0002 1.63477L23.8459 13.6184C24.0449 13.8204 24.0524 14.1551 23.8614 14.3661C23.7634 14.4745 23.6324 14.5295 23.5004 14.5295Z" fill="black"/>
<path d="M19.5 8.18517C19.2235 8.18517 19 7.94826 19 7.65635V4.48342H16C15.7235 4.48342 15.5 4.24651 15.5 3.9546C15.5 3.66269 15.7235 3.42578 16 3.42578H20V7.65635C20 7.94826 19.7765 8.18517 19.5 8.18517Z" fill="black"/>
</g>
<defs>
<clipPath id="clip0_1505_2679">
<rect width="30" height="30" fill="white"/>
</clipPath>
</defs>
</svg>
