<svg width="24" height="24" viewBox="0 0 24 24" fill="none" xmlns="http://www.w3.org/2000/svg">
<path d="M22 24H2C0.897 24 0 22.6545 0 21V3C0 1.3455 0.897 0 2 0H22C23.103 0 24 1.3455 24 3V21C24 22.6545 23.103 24 22 24ZM2 1.5C1.4485 1.5 1 2.17275 1 3V21C1 21.8272 1.4485 22.5 2 22.5H22C22.5515 22.5 23 21.8272 23 21V3C23 2.17275 22.5515 1.5 22 1.5H2Z" fill="black"/>
<path d="M12.0002 15.8932L3.22871 7.37998C2.99671 7.15423 2.93021 6.69073 3.08021 6.34273C3.23021 5.99473 3.53971 5.89573 3.77171 6.11998L12.0002 14.1067L20.2287 6.11998C20.4607 5.89573 20.7702 5.99473 20.9202 6.34273C21.0702 6.69073 21.0037 7.15423 20.7717 7.37998L12.0002 15.8932Z" fill="black"/>
<path d="M3.00079 19.5004C2.83929 19.5004 2.68029 19.3834 2.58429 19.1667C2.43079 18.8217 2.49279 18.3567 2.72279 18.1264L7.22279 13.6264C7.45279 13.3962 7.76329 13.4892 7.91629 13.8342C8.06979 14.1792 8.00779 14.6442 7.77779 14.8744L3.27779 19.3744C3.19229 19.4592 3.09579 19.5004 3.00079 19.5004Z" fill="black"/>
<path d="M20.9998 19.5004C20.9048 19.5004 20.8083 19.4592 20.7228 19.3744L16.2228 14.8744C15.9928 14.6442 15.9308 14.1792 16.0843 13.8342C16.2373 13.4892 16.5473 13.3962 16.7778 13.6264L21.2778 18.1264C21.5078 18.3567 21.5698 18.8217 21.4163 19.1667C21.3203 19.3834 21.1613 19.5004 20.9998 19.5004Z" fill="black"/>
</svg>
